PathFileType	4	(X/Y/Z)	C:\Users\WrightLab\Desktop\Jo\P1_boxCal5.trc
DataRate	CameraRate	NumFrames	NumMarkers	Units	OrigDataRate	OrigDataStartFrame	OrigNumFrames
100.00	100.00	       12	19	mm	100.00	123	       976
Frame#	Time	Headset_Front			Headset_Back			Headset_Left			Headset_Right			Left_Shoulder			Right_Shoulder			Sternum			C7			Left Elbow			Right Elbow			Left Wrist			Right Wrist			Left ASIS			Right ASIS			S2			Left Knee			Right Knee			Left Ankle			Right Ankle			
		X1	Y1	Z1	X2	Y2	Z2	X3	Y3	Z3	X4	Y4	Z4	X5	Y5	Z5	X6	Y6	Z6	X7	Y7	Z7	X8	Y8	Z8	X9	Y9	Z9	X10	Y10	Z10	X11	Y11	Z11	X12	Y12	Z12	X13	Y13	Z13	X14	Y14	Z14	X15	Y15	Z15	X16	Y16	Z16	X17	Y17	Z17	X18	Y18	Z18	X19	Y19	Z19	

123	1.220							-841.57758	491.49249	1458.64319	-600.54034	1174.11731	1383.33423							-996.40149	956.28143	1384.71838	-815.18030	109.48557	1456.44385	-510.24097	226.11389	1883.10645							-417.89923	1039.09717	1596.81262	-496.72662	464.23264	1614.69958							-779.06012	904.29932	1413.63940	-526.29810	1301.27820	1551.15588	-428.73129	991.64166	1341.95227	-900.00507	1278.07422	1596.74731	
124	1.230							-845.61523	491.25153	1451.20410										-998.02704	959.51257	1374.47510	-815.31042	109.48610	1456.01172	-510.39197	231.67836	1867.58984	-584.57831	913.65991	1433.59424				-419.39706	1040.76404	1589.75183	-494.22049	465.51263	1595.83337				-586.54364	257.08722	1917.56665	-781.16528	905.63275	1403.61572	-528.05603	1302.48230	1542.92322	-430.78741	994.11041	1332.73840	-901.36725	1279.35461	1585.58972	
125	1.240							-849.67761	490.22794	1444.76050	-588.00159	264.44510	1894.89685							-999.14368	961.85754	1361.92163	-815.53467	109.35723	1455.57275	-511.15897	236.30753	1849.24341	-586.88739	914.68207	1424.78113				-420.77719	1041.19385	1579.75476	-491.55084	466.87643	1576.97974							-784.11664	906.79340	1393.68823	-529.71271	1303.34387	1533.93250	-432.99637	995.46216	1322.87537	-903.31970	1280.07800	1576.04175	
126	1.250							-853.52002	488.54651	1438.41077										-1000.41724	964.72992	1349.55090	-815.62976	108.88194	1455.06067	-511.67194	241.57785	1832.29333	-588.91669	915.04913	1416.83765				-421.85141	1042.20837	1571.71545	-488.81161	468.79401	1557.58411				-590.64380	269.91931	1875.58289	-787.04437	907.60797	1384.08716	-530.66650	1304.66382	1526.64844	-434.33380	997.37134	1313.87659	-904.60638	1280.85645	1566.22693	
127	1.260							-856.85077	486.30606	1432.20593	-408.43628	1243.38342	743.36792							-1000.97913	967.44824	1337.33582	-815.75067	108.42673	1454.66760	-514.47992	246.30844	1814.40063	-590.50763	915.51166	1408.45471				-423.83051	1042.37134	1561.51538	-486.33676	471.48807	1539.23218				-594.56952	273.09195	1858.73120	-788.34631	907.12512	1373.80469	-531.60901	1305.37781	1518.05505	-436.22107	999.08740	1304.86011	-906.00409	1282.05396	1555.49341	
128	1.270							-860.10797	484.89374	1428.91394										-1001.68481	970.66931	1325.13477	-815.73083	108.16833	1454.43127	-516.13660	251.55722	1799.51038	-591.65979	916.40704	1399.64880				-424.97043	1042.92639	1552.83655							-598.35382	274.10110	1841.39795	-789.27734	910.08466	1363.32275	-532.66248	1305.96143	1510.57788	-437.92334	1000.77283	1296.68445	-907.07056	1283.20203	1545.27100	
129	1.280							-863.20428	483.20255	1423.26672	-483.49860	477.22852	1500.02222							-1002.12073	973.97058	1312.94531	-815.73102	108.02279	1454.54211	-517.15765	252.87854	1781.97461	-593.02008	916.40167	1391.53479				-426.30096	1043.17529	1545.43140							-602.53455	274.50473	1824.88440	-792.60229	909.51593	1355.20203	-533.44934	1306.74414	1503.17419	-439.66479	1002.29895	1287.30310	-908.29663	1284.33252	1536.70679	
130	1.290							-865.95569	481.48322	1419.20935										-1002.51306	977.18073	1300.96216	-815.67419	107.93240	1454.84546	-518.09564	255.02808	1762.60315	-594.06024	917.09448	1383.31128				-427.35736	1043.54639	1536.87561							-606.17291	273.32751	1806.70593	-794.42828	909.02710	1349.34766	-534.08124	1306.96106	1496.28210	-440.13055	1003.47974	1279.17737	-909.68579	1285.19031	1527.80432	
131	1.300							-867.57568	478.69556	1416.93628	-419.02060	1251.41821	716.50293							-1002.31281	980.34222	1289.14197	-815.73267	108.07369	1455.25110	-519.81311	255.93204	1741.97595	-594.58838	917.65625	1372.39038				-428.33072	1044.05103	1528.66614							-609.55280	270.43665	1787.01025	-795.59668	910.45819	1340.78101	-535.08521	1307.88586	1488.22534	-440.72693	1004.64935	1271.73914	-910.51917	1286.53003	1517.43921	
132	1.310							-870.69916	478.49866	1414.12378										-1002.07416	983.70569	1277.34448	-816.53796	106.79037	1459.37622	-520.78955	255.22499	1720.66321	-595.72192	917.62769	1366.85791				-430.37781	1043.65173	1520.78479							-611.57996	266.80042	1764.04346	-796.72589	911.13934	1333.24231	-535.86981	1308.68042	1481.69360	-441.67618	1005.67419	1263.84863	-911.65607	1288.01086	1507.41418	
133	1.320							-872.06702	478.02380	1413.96362	-986.55170	975.89038	1504.78149							-1001.59033	986.84009	1265.96387	-816.40216	106.39098	1460.29370	-521.73511	252.94081	1698.66382	-596.45776	918.33887	1359.42957				-431.40918	1043.91931	1514.30310							-613.45245	262.69843	1744.15417	-797.77332	912.49213	1324.01575	-536.23242	1309.47510	1473.73340	-441.63724	1006.89844	1255.65857	-912.75104	1289.28748	1499.70837	
134	1.330							-872.22565	477.72577	1414.85559										-1000.88239	989.85315	1254.66638	-816.65918	107.23134	1459.85889	-521.89813	249.23473	1676.49268	-597.24902	919.62274	1350.38245				-433.39569	1044.96509	1506.68701							-615.30048	258.13113	1724.43713	-797.56421	913.80109	1316.65625	-536.98499	1310.33228	1465.57214	-442.57178	1008.12006	1248.07324	-913.71692	1290.57703	1491.53137	
